<?xml version="1.0" encoding="utf-8"?>
<!-- Generator: Adobe Illustrator 27.5.0, SVG Export Plug-In . SVG Version: 6.00 Build 0)  -->
<svg version="1.1" xmlns="http://www.w3.org/2000/svg" xmlns:xlink="http://www.w3.org/1999/xlink" x="0px" y="0px"
	 viewBox="0 0 1920 480" style="enable-background:new 0 0 1920 480;" xml:space="preserve">
<g id="BACKGROUND">
	<defs>
		<rect id="SVGID_1_" width="1920" height="480"/>
	</defs>
	<clipPath id="SVGID_00000102509822465876173520000015027118398473719996_">
		<use xlink:href="#SVGID_1_"  style="overflow:visible;"/>
	</clipPath>
	
		<rect style="clip-path:url(#SVGID_00000102509822465876173520000015027118398473719996_);fill:#EDEDED;" width="1920" height="480"/>
	
		<rect x="117.034" y="390.834" style="clip-path:url(#SVGID_00000102509822465876173520000015027118398473719996_);fill:#333533;" width="478.542" height="197.239"/>
	
		<rect x="1324.424" y="-95.62" style="clip-path:url(#SVGID_00000102509822465876173520000015027118398473719996_);fill:#333533;" width="478.543" height="197.239"/>
</g>
<g id="PHOTOS">
	<defs>
		<rect id="SVGID_00000060748670640043157080000002850090331865547935_" width="1920" height="480"/>
	</defs>
	<clipPath id="SVGID_00000109024248095439369950000013923181052144861314_">
		<use xlink:href="#SVGID_00000060748670640043157080000002850090331865547935_"  style="overflow:visible;"/>
	</clipPath>
	<g style="clip-path:url(#SVGID_00000109024248095439369950000013923181052144861314_);">
		<defs>
			
				<rect id="SVGID_00000131351731856216078100000008416864033588816826_" x="117.034" y="-148.87" width="478.542" height="539.704"/>
		</defs>
		<use xlink:href="#SVGID_00000131351731856216078100000008416864033588816826_"  style="overflow:visible;fill:#C6C6C6;"/>
		<clipPath id="SVGID_00000122682821461061234390000007430491222024315276_">
			<use xlink:href="#SVGID_00000131351731856216078100000008416864033588816826_"  style="overflow:visible;"/>
		</clipPath>
	</g>
	<g style="clip-path:url(#SVGID_00000109024248095439369950000013923181052144861314_);">
		<defs>
			
				<rect id="SVGID_00000120523950625628983920000007720869762774990520_" x="1324.424" y="89.166" width="478.543" height="539.703"/>
		</defs>
		<use xlink:href="#SVGID_00000120523950625628983920000007720869762774990520_"  style="overflow:visible;fill:#C6C6C6;"/>
		<clipPath id="SVGID_00000048465728608234475310000007965557694982601659_">
			<use xlink:href="#SVGID_00000120523950625628983920000007720869762774990520_"  style="overflow:visible;"/>
		</clipPath>
	</g>
</g>
<g id="OBJECTS">
	<g>
		<g>
			<path style="fill:#FFFFFF;" d="M885.551,390.168c-2.247-0.35-4.495-0.99-6.736-0.949c-1.432,0.024-3.274,1.93-4.209,1.48
				c-7.184-3.461-14.294-7.121-21.133-11.218c-0.902-0.538-0.121-3.888-0.121-6.235c-2.029,0.206-3.792,0.387-5.971,0.607
				c-0.971-2.058-1.974-4.181-3.016-6.385c-6.434,0.99-11.016-2.153-14.471-7.538c-5.071,2.057-9.684,4.47-14.593,5.761
				c-4.389,1.155-9.121,1.547-13.677,1.423c-6.973-0.187-10.088-5.064-8.548-12.918c-2.721-0.296-5.407-0.589-9.276-1.009
				c0.402-2.344,0.753-4.492,1.139-6.633c0.361-1.989,0.759-3.97,1.245-6.504c4.716-0.198,10.148,3.518,14.692-1.628
				c-0.379-2.113-0.803-4.444-1.214-6.729c-0.716-0.162-1.407-0.567-1.861-0.383c-4.955,2.007-9.498,4.631-15.443,3.894
				c-3.386-0.42-8.227-1.136-10.447,3.926c-0.233,0.541-5.03,0.298-5.559-0.711c-2.574-4.905-4.417-10.197-6.782-16.005
				c-2.148,0.684-4.993,1.59-9.055,2.888c-3.841-4.756-7.209-11.007-12.38-14.804c-6.443-4.738-4.95-14.257-12.401-17.725
				c0.377-6.331-6.584-11.001-4.227-17.644c1.607-4.525,3.639-8.952,5.983-13.145c1.638-2.924,4.121-5.374,6.587-8.489
				c-0.865-1.659-1.805-3.461-2.745-5.261c-6.27,3.007-7.148,2.718-8.287-2.876c-1.413-6.936-0.635-13.696,3.274-19.617
				c3.904-5.915,8.093-11.708,12.75-17.036c13.588-15.549,27.486-30.833,41.217-46.253c1.223-1.376,2.294-2.945,3.166-4.563
				c15.233-28.214,35.467-52.625,57.176-75.988c12.202-13.13,23.763-26.854,35.834-40.108c5.812-6.383,11.972-12.473,18.278-18.373
				c5.622-5.261,12.184-6.73,19.705-3.919c5.179,1.935,10.664,3.037,15.925,4.783c5.223,1.733,9.114,5.024,10.176,9.476
				c9.005,1.128,17.655,1.421,25.87,3.463c8.293,2.059,16.156,5.85,24.617,9.038c-0.543,1.141-1.259,2.646-2.012,4.226
				c0.66,0.081,1.413,0.4,1.662,0.171c4.7-4.283,9.597-3.133,14.636-0.722c5.514,2.64,11.088,5.158,17.028,7.913
				c-1.249,13.033-14.264,19.055-20.754,30.191c10.656-1.466,21.314-6.152,28.828,5.861c1.8-0.832,3.661-1.69,5.519-2.55
				c3.801,8.934,3.801,8.934,11.483,7.707c0.874,2.086,1.793,4.271,2.87,6.83c5.615,0.143,10.489,1.547,15.035,6.138
				c3.561,3.598,9.643,4.716,14.629,6.886c1.32,0.576,3.695,0.682,3.929,1.481c1.806,6.226,5.971,9.506,12.084,10.733
				c-0.479,5.855,3.337,1.749,5.188,2.403c4.188,1.476,8.149,3.58,12.449,5.54c-2.093,3.623-4.184,7.244-6.553,11.346
				c1.734,2.602,1.773,6.241,7.686,4.485c3.461-1.027,8.205,2.266,13.379,3.941c-2.423,5.32-4.757,10.443-7.227,15.866
				c5.03,3.365,10.306,5.189,12.874,11.204c1.18,2.757,7.095,3.492,12.087,5.687c1.286,5.574,2.64,13.176,11.269,15.682
				c0.296,0.087,0.834,0.112,0.862,0.249c1.295,6.161,6.879,8.433,10.755,12.336c4.36,4.392,3.931,4.822,8.233,5.006
				c1.967,6.511,3.896,12.893,5.988,19.826c2.472-0.825,4.931-1.641,7.422-2.469c-0.841,6.981-0.841,6.981,8.599,8.917
				c-6.334,7.848-9.055,17.067-17.42,23.543c-8.056,6.231-14.11,15.081-20.917,22.891c-5.815,6.665-12.609,11.412-22.671,12.271
				c1.252,2.813,2.428,5.457,3.816,8.581c-0.731,1.024-1.618,2.692-2.901,3.97c-10.089,10.072-20.265,20.059-30.382,30.106
				c-0.858,0.853-1.625,1.871-2.191,2.939c-3.33,6.271-9.496,10.781-12.14,17.082c-1.786,4.265-6.481,0.965-7.94,5.734
				c-1.696,5.54-5.911,10.552-9.849,15.081c-2.46,2.829-6.227,4.822-9.771,6.334c-5.913,2.524-9.672,7.278-13.802,11.73
				c-0.418,0.455-1.245,0.821-1.285,1.289c-1.099,11.868-12.761,15.632-18.406,24.012c-4.601,6.824-9.332,13.588-14.481,19.99
				c-4.965,6.164-8.716,6.226-16.765,3.405c-7.365-2.583-13.289-7.107-19.649-11.306c-4.613-3.044-10.87-3.604-16.94-5.44
				c2.563-6.665-6.35-7.304-8.218-12.404c-0.184-0.502-1.824-0.99-2.453-0.72c-6.325,2.762-10.434-1.326-13.97-5.124
				c-4.352-4.669-11.439-6.761-13.254-13.817c-7.801-3.281-11.306-10.957-17.211-17.18c-3.832,2.503-7.493,5.171-11.421,7.365
				c-2.938,1.641-6.129,3.234-9.385,3.77c-2.001,0.327-4.722-0.906-6.431-2.288c-2.369-1.917-4.096-4.638-6.91-7.975
				c3.104-1.663,6.201-3.319,9.266-5.006c3.069-1.91,5.896-1.314,8.112,1.305c3.375,3.987,6.257,2.325,9.196-0.434
				c1.503-1.406,3.013-2.807,4.277-3.984c-2.267-3.66-4.321-6.975-6.241-10.072c-4.367,1.615-7.91,2.618-11.156,4.215
				C885.781,382.831,882.27,385.155,885.551,390.168z M878.305,378.606c3.61,3.623,4.942,3.038,7.797-3.579
				c-2.789,1.325-5.435,2.587-8.084,3.847c1.349-1.736,2.696-3.477,4.738-6.11c-5.979,1.908-5.979,1.908-7.968,6.905
				C875.976,379.319,877.115,378.986,878.305,378.606z M1136.916,281.382c7.502,1.485,6.058-6.475,9.689-9.064
				c-4.476,1.737-8.419,4.027-9.503,9.232c-2.002,1.73-4.003,3.458-6.008,5.186c-2.234,0.891-4.962,1.245-6.63,2.764
				c-9.404,8.561-18.553,17.401-27.767,26.12c3.805,4.638,7.651,2.661,11.362,0.376c3.081,12.023-8.809,15.073-12.869,22.488
				c2.192,6.9,6.276,1.892,10.136,1.463c-0.522,2.648-0.924,4.678-1.662,8.404c4.114-4.09,8.024-5.951,4.726-11.421
				c-0.86-1.426-0.841-5.021,2.34-7.135c4.446-2.954,8.094-6.889,13.774-8c2.391-0.47,5.41-2.382,6.385-4.461
				c1.968-4.211,2.733-8.986,3.997-13.527c2.857-1.986,5.712-3.973,8.569-5.958c3.149,4.909,3.149,4.909,7.081,3.848
				c0.734-1.572,1.47-3.145,2.201-4.714c0.389-2.44,1.926-6.244,0.949-7.068c-2.782-2.351-1.084-3.483,0.205-5.121
				c3.141-3.99,6.267-7.99,9.354-12.031c1.92-1.97,3.838-3.936,5.762-5.904c-4.62,0.168-6.892,2.029-5.51,6.194
				c-3.842-2.157-6.418-1.133-9.438,2.23c-6.689,7.457-11.984,16.927-23.324,18.654c0.065-2.466,0.134-4.934,0.227-7.368
				C1136.804,288.114,1136.978,287.968,1136.916,281.382z M789.758,315.037c-5.883-5.983-5.883-5.983-6.002-10.453
				c-3.467,1.531-6.867,3.032-11.554,5.1c3.336,5.194,6.225,9.686,9.083,14.141c2.267-1.279,4.159-2.35,7.39-4.177
				c-2.31,3.28-3.555,5.046-5.615,7.972c4.208-0.909,6.854-1.479,9.463-2.029c-0.474,1.183-0.947,2.362-1.42,3.542
				c0.411,0.398,0.822,0.8,1.236,1.202c2.34-1.202,4.682-2.4,7.022-3.599c-0.246-0.676-0.495-1.352-0.744-2.027
				c-2.117,0.384-4.233,0.763-6.35,1.145c1.687-2.328,3.377-4.655,5.104-7.037c-0.405-0.209-7.782-3.973-7.782-3.973
				c3.878,0.741,6.188-0.891,7.757-4.931C792.292,308.83,791.083,312.018,789.758,315.037z M1117.533,329.928
				c5.637,0.673,7.573-0.227,7.521-5.9C1122.291,326.193,1120.66,327.477,1117.533,329.928z M796.979,346.616
				c-3.518-3.088-5.323-4.41-7.471-0.557C791.924,346.239,793.602,346.364,796.979,346.616z M767.514,329.928
				c-0.006,0.499-0.016,1-0.025,1.501c1.214,0.056,2.428,0.112,3.642,0.172c-0.035-0.558-0.022-1.594-0.106-1.603
				C769.864,329.892,768.69,329.928,767.514,329.928z"/>
			<path style="fill:#FFFFFF;" d="M1150.537,301.696c-2.883-3.378-2.695-3.773,2.198-4.717
				C1152.007,298.552,1151.271,300.124,1150.537,301.696z"/>
			<path style="fill:#FFFFFF;" d="M1129.806,294.455c0.203,1.118,0.401,2.235,0.602,3.355c5.961-1.313,4.528,3.07,4.757,6.17
				c-3.481-3.897-6.436-0.794-9.148,0.984c-2.934,1.917-5.454,4.45-8.418,6.94c-0.43-0.952-1.893-2.872-1.473-3.474
				C1119.901,303.047,1122.883,296.774,1129.806,294.455z"/>
		</g>
		<g>
			
				<polyline style="fill:none;stroke:#333533;stroke-width:4.7813;stroke-linecap:round;stroke-linejoin:round;stroke-miterlimit:10;" points="
				918.702,418.071 786.545,418.071 786.545,71.082 817.823,71.082 			"/>
			
				<polyline style="fill:none;stroke:#333533;stroke-width:4.7813;stroke-linecap:round;stroke-linejoin:round;stroke-miterlimit:10;" points="
				1133.533,341.318 1133.533,418.071 1107.575,418.071 			"/>
			
				<polyline style="fill:none;stroke:#333533;stroke-width:4.7813;stroke-linecap:round;stroke-linejoin:round;stroke-miterlimit:10;" points="
				1028.78,71.082 1133.533,71.082 1133.533,176.269 			"/>
		</g>
		<g>
			<g>
				<path style="fill:#333533;" d="M851.086,86.113c0,8.813-6.293,14.745-14.387,14.745c-8.628,0-14.742-6.113-14.742-14.745
					c0-4.137,0.715-7.194,3.953-15.466l9.532-25.536h14.387l-7.194,27.515C847.849,74.783,851.086,79.457,851.086,86.113z
					 M889.211,86.113c0,8.813-6.294,14.745-14.387,14.745c-8.632,0-14.749-6.113-14.749-14.745c0-4.137,0.723-7.194,3.96-15.466
					l9.531-25.536h14.387l-7.197,27.515C885.975,74.783,889.211,79.457,889.211,86.113z"/>
			</g>
		</g>
		<g>
			<g>
				<path style="fill:#333533;" d="M1065.851,403.039c0,4.137-0.719,7.193-3.956,15.467l-9.352,25.534h-14.564l7.19-27.693
					c-5.036-1.978-8.451-6.656-8.451-13.308c0-8.813,6.294-14.745,14.565-14.745
					C1059.736,388.294,1065.851,394.407,1065.851,403.039z M1103.977,403.039c0,4.137-0.723,7.193-3.959,15.467l-9.352,25.534
					h-14.564l7.192-27.693c-5.036-1.978-8.454-6.656-8.454-13.308c0-8.813,6.295-14.745,14.569-14.745
					C1097.859,388.294,1103.977,394.407,1103.977,403.039z"/>
			</g>
		</g>
	</g>
</g>
<g id="TEXTS">
	<text transform="matrix(1 0 0 1 812.1294 240)"><tspan x="0" y="0" style="fill:#333533; font-family:'Montserrat-Bold'; font-size:61.218px;">FASHION</tspan><tspan x="42.179" y="61.215" style="fill:#333533; font-family:'Montserrat-Bold'; font-size:61.218px;">SHOW</tspan></text>
	
		<text transform="matrix(1 0 0 1 870.4565 359.0176)" style="fill:#333533; font-family:'Montserrat-Regular'; font-size:16.2474px;">twitch.tv/fashionshow</text>
	<text transform="matrix(1 0 0 1 854.4648 158.2695)" style="fill:#333533; font-family:'Montserrat-Bold'; font-size:20.1886px;">currently streaming</text>
</g>
</svg>
